%FSLAX45Y45*%
G04 Gerber Fmt 4.5, Leading zero omitted, Abs format (unit mm)*
G04 Created by KiCad (PCBNEW (5.1.10)-1) date 2021-05-24 22:05:39*
%MOMM*%
%LPD*%
G01*
G04 APERTURE LIST*
%TA.AperFunction,Profile*%
%ADD10C,0.050000*%
%TD*%
%ADD11C,0.200000*%
%ADD12C,0.300000*%
G04 APERTURE END LIST*
D10*
X13500000Y-9985000D02*
X13500000Y-7662500D01*
X17382500Y-9992500D02*
X13500000Y-9985000D01*
X17382500Y-7662500D02*
X17382500Y-9992500D01*
X13500000Y-7662500D02*
X17382500Y-7662500D01*
D11*
X14180000Y-9425000D02*
X14220000Y-9465000D01*
X14220000Y-9425000D02*
X14180000Y-9465000D01*
X14560000Y-9660000D02*
X14600000Y-9700000D01*
X14600000Y-9660000D02*
X14560000Y-9700000D01*
X14965000Y-9660000D02*
X15005000Y-9700000D01*
X15005000Y-9660000D02*
X14965000Y-9700000D01*
X15505000Y-9707500D02*
X15545000Y-9747500D01*
X15545000Y-9707500D02*
X15505000Y-9747500D01*
X16875000Y-8385000D02*
G75*
G03*
X16875000Y-8385000I-45000J0D01*
G01*
X16882500Y-9225000D02*
G75*
G03*
X16882500Y-9225000I-45000J0D01*
G01*
X17129000Y-8385000D02*
G75*
G03*
X17129000Y-8385000I-45000J0D01*
G01*
X17136500Y-9225000D02*
G75*
G03*
X17136500Y-9225000I-45000J0D01*
G01*
X14045000Y-8547500D02*
X14045000Y-8647500D01*
X13995000Y-8597500D02*
X14095000Y-8597500D01*
X14045000Y-8801500D02*
X14045000Y-8901500D01*
X13995000Y-8851500D02*
X14095000Y-8851500D01*
X14045000Y-9055500D02*
X14045000Y-9155500D01*
X13995000Y-9105500D02*
X14095000Y-9105500D01*
D12*
X13783928Y-10460714D02*
X13783928Y-10160714D01*
X13855357Y-10160714D01*
X13898214Y-10175000D01*
X13926786Y-10203572D01*
X13941071Y-10232143D01*
X13955357Y-10289286D01*
X13955357Y-10332143D01*
X13941071Y-10389286D01*
X13926786Y-10417857D01*
X13898214Y-10446429D01*
X13855357Y-10460714D01*
X13783928Y-10460714D01*
X14083928Y-10460714D02*
X14083928Y-10260714D01*
X14083928Y-10317857D02*
X14098214Y-10289286D01*
X14112500Y-10275000D01*
X14141071Y-10260714D01*
X14169643Y-10260714D01*
X14269643Y-10460714D02*
X14269643Y-10260714D01*
X14269643Y-10160714D02*
X14255357Y-10175000D01*
X14269643Y-10189286D01*
X14283928Y-10175000D01*
X14269643Y-10160714D01*
X14269643Y-10189286D01*
X14455357Y-10460714D02*
X14426786Y-10446429D01*
X14412500Y-10417857D01*
X14412500Y-10160714D01*
X14612500Y-10460714D02*
X14583928Y-10446429D01*
X14569643Y-10417857D01*
X14569643Y-10160714D01*
X14955357Y-10460714D02*
X14955357Y-10160714D01*
X15055357Y-10375000D01*
X15155357Y-10160714D01*
X15155357Y-10460714D01*
X15426786Y-10460714D02*
X15426786Y-10303572D01*
X15412500Y-10275000D01*
X15383928Y-10260714D01*
X15326786Y-10260714D01*
X15298214Y-10275000D01*
X15426786Y-10446429D02*
X15398214Y-10460714D01*
X15326786Y-10460714D01*
X15298214Y-10446429D01*
X15283928Y-10417857D01*
X15283928Y-10389286D01*
X15298214Y-10360714D01*
X15326786Y-10346429D01*
X15398214Y-10346429D01*
X15426786Y-10332143D01*
X15569643Y-10260714D02*
X15569643Y-10560714D01*
X15569643Y-10275000D02*
X15598214Y-10260714D01*
X15655357Y-10260714D01*
X15683928Y-10275000D01*
X15698214Y-10289286D01*
X15712500Y-10317857D01*
X15712500Y-10403572D01*
X15698214Y-10432143D01*
X15683928Y-10446429D01*
X15655357Y-10460714D01*
X15598214Y-10460714D01*
X15569643Y-10446429D01*
X15841071Y-10432143D02*
X15855357Y-10446429D01*
X15841071Y-10460714D01*
X15826786Y-10446429D01*
X15841071Y-10432143D01*
X15841071Y-10460714D01*
X15841071Y-10275000D02*
X15855357Y-10289286D01*
X15841071Y-10303572D01*
X15826786Y-10289286D01*
X15841071Y-10275000D01*
X15841071Y-10303572D01*
X13457500Y-10935000D02*
X13497500Y-10975000D01*
X13497500Y-10935000D02*
X13457500Y-10975000D01*
X13841071Y-10790714D02*
X13869643Y-10790714D01*
X13898214Y-10805000D01*
X13912500Y-10819286D01*
X13926786Y-10847857D01*
X13941071Y-10905000D01*
X13941071Y-10976429D01*
X13926786Y-11033572D01*
X13912500Y-11062143D01*
X13898214Y-11076429D01*
X13869643Y-11090714D01*
X13841071Y-11090714D01*
X13812500Y-11076429D01*
X13798214Y-11062143D01*
X13783928Y-11033572D01*
X13769643Y-10976429D01*
X13769643Y-10905000D01*
X13783928Y-10847857D01*
X13798214Y-10819286D01*
X13812500Y-10805000D01*
X13841071Y-10790714D01*
X14069643Y-11062143D02*
X14083928Y-11076429D01*
X14069643Y-11090714D01*
X14055357Y-11076429D01*
X14069643Y-11062143D01*
X14069643Y-11090714D01*
X14341071Y-10890714D02*
X14341071Y-11090714D01*
X14269643Y-10776429D02*
X14198214Y-10990714D01*
X14383928Y-10990714D01*
X14555357Y-10790714D02*
X14583928Y-10790714D01*
X14612500Y-10805000D01*
X14626786Y-10819286D01*
X14641071Y-10847857D01*
X14655357Y-10905000D01*
X14655357Y-10976429D01*
X14641071Y-11033572D01*
X14626786Y-11062143D01*
X14612500Y-11076429D01*
X14583928Y-11090714D01*
X14555357Y-11090714D01*
X14526786Y-11076429D01*
X14512500Y-11062143D01*
X14498214Y-11033572D01*
X14483928Y-10976429D01*
X14483928Y-10905000D01*
X14498214Y-10847857D01*
X14512500Y-10819286D01*
X14526786Y-10805000D01*
X14555357Y-10790714D01*
X14841071Y-10790714D02*
X14869643Y-10790714D01*
X14898214Y-10805000D01*
X14912500Y-10819286D01*
X14926786Y-10847857D01*
X14941071Y-10905000D01*
X14941071Y-10976429D01*
X14926786Y-11033572D01*
X14912500Y-11062143D01*
X14898214Y-11076429D01*
X14869643Y-11090714D01*
X14841071Y-11090714D01*
X14812500Y-11076429D01*
X14798214Y-11062143D01*
X14783928Y-11033572D01*
X14769643Y-10976429D01*
X14769643Y-10905000D01*
X14783928Y-10847857D01*
X14798214Y-10819286D01*
X14812500Y-10805000D01*
X14841071Y-10790714D01*
X15069643Y-11090714D02*
X15069643Y-10890714D01*
X15069643Y-10919286D02*
X15083928Y-10905000D01*
X15112500Y-10890714D01*
X15155357Y-10890714D01*
X15183928Y-10905000D01*
X15198214Y-10933572D01*
X15198214Y-11090714D01*
X15198214Y-10933572D02*
X15212500Y-10905000D01*
X15241071Y-10890714D01*
X15283928Y-10890714D01*
X15312500Y-10905000D01*
X15326786Y-10933572D01*
X15326786Y-11090714D01*
X15469643Y-11090714D02*
X15469643Y-10890714D01*
X15469643Y-10919286D02*
X15483928Y-10905000D01*
X15512500Y-10890714D01*
X15555357Y-10890714D01*
X15583928Y-10905000D01*
X15598214Y-10933572D01*
X15598214Y-11090714D01*
X15598214Y-10933572D02*
X15612500Y-10905000D01*
X15641071Y-10890714D01*
X15683928Y-10890714D01*
X15712500Y-10905000D01*
X15726786Y-10933572D01*
X15726786Y-11090714D01*
X16312500Y-10776429D02*
X16055357Y-11162143D01*
X16698214Y-10790714D02*
X16726786Y-10790714D01*
X16755357Y-10805000D01*
X16769643Y-10819286D01*
X16783928Y-10847857D01*
X16798214Y-10905000D01*
X16798214Y-10976429D01*
X16783928Y-11033572D01*
X16769643Y-11062143D01*
X16755357Y-11076429D01*
X16726786Y-11090714D01*
X16698214Y-11090714D01*
X16669643Y-11076429D01*
X16655357Y-11062143D01*
X16641071Y-11033572D01*
X16626786Y-10976429D01*
X16626786Y-10905000D01*
X16641071Y-10847857D01*
X16655357Y-10819286D01*
X16669643Y-10805000D01*
X16698214Y-10790714D01*
X16926786Y-11062143D02*
X16941071Y-11076429D01*
X16926786Y-11090714D01*
X16912500Y-11076429D01*
X16926786Y-11062143D01*
X16926786Y-11090714D01*
X17126786Y-10790714D02*
X17155357Y-10790714D01*
X17183928Y-10805000D01*
X17198214Y-10819286D01*
X17212500Y-10847857D01*
X17226786Y-10905000D01*
X17226786Y-10976429D01*
X17212500Y-11033572D01*
X17198214Y-11062143D01*
X17183928Y-11076429D01*
X17155357Y-11090714D01*
X17126786Y-11090714D01*
X17098214Y-11076429D01*
X17083928Y-11062143D01*
X17069643Y-11033572D01*
X17055357Y-10976429D01*
X17055357Y-10905000D01*
X17069643Y-10847857D01*
X17083928Y-10819286D01*
X17098214Y-10805000D01*
X17126786Y-10790714D01*
X17512500Y-11090714D02*
X17341071Y-11090714D01*
X17426786Y-11090714D02*
X17426786Y-10790714D01*
X17398214Y-10833572D01*
X17369643Y-10862143D01*
X17341071Y-10876429D01*
X17783928Y-10790714D02*
X17641071Y-10790714D01*
X17626786Y-10933572D01*
X17641071Y-10919286D01*
X17669643Y-10905000D01*
X17741071Y-10905000D01*
X17769643Y-10919286D01*
X17783928Y-10933572D01*
X17798214Y-10962143D01*
X17798214Y-11033572D01*
X17783928Y-11062143D01*
X17769643Y-11076429D01*
X17741071Y-11090714D01*
X17669643Y-11090714D01*
X17641071Y-11076429D01*
X17626786Y-11062143D01*
X17898214Y-10790714D02*
X18098214Y-10790714D01*
X17969643Y-11090714D01*
X18198214Y-10790714D02*
X18198214Y-10847857D01*
X18312500Y-10790714D02*
X18312500Y-10847857D01*
X18755357Y-11205000D02*
X18741071Y-11190714D01*
X18712500Y-11147857D01*
X18698214Y-11119286D01*
X18683928Y-11076429D01*
X18669643Y-11005000D01*
X18669643Y-10947857D01*
X18683928Y-10876429D01*
X18698214Y-10833572D01*
X18712500Y-10805000D01*
X18741071Y-10762143D01*
X18755357Y-10747857D01*
X18998214Y-10890714D02*
X18998214Y-11090714D01*
X18926786Y-10776429D02*
X18855357Y-10990714D01*
X19041071Y-10990714D01*
X19383928Y-11090714D02*
X19383928Y-10790714D01*
X19512500Y-11090714D02*
X19512500Y-10933572D01*
X19498214Y-10905000D01*
X19469643Y-10890714D01*
X19426786Y-10890714D01*
X19398214Y-10905000D01*
X19383928Y-10919286D01*
X19698214Y-11090714D02*
X19669643Y-11076429D01*
X19655357Y-11062143D01*
X19641071Y-11033572D01*
X19641071Y-10947857D01*
X19655357Y-10919286D01*
X19669643Y-10905000D01*
X19698214Y-10890714D01*
X19741071Y-10890714D01*
X19769643Y-10905000D01*
X19783928Y-10919286D01*
X19798214Y-10947857D01*
X19798214Y-11033572D01*
X19783928Y-11062143D01*
X19769643Y-11076429D01*
X19741071Y-11090714D01*
X19698214Y-11090714D01*
X19969643Y-11090714D02*
X19941071Y-11076429D01*
X19926786Y-11047857D01*
X19926786Y-10790714D01*
X20198214Y-11076429D02*
X20169643Y-11090714D01*
X20112500Y-11090714D01*
X20083928Y-11076429D01*
X20069643Y-11047857D01*
X20069643Y-10933572D01*
X20083928Y-10905000D01*
X20112500Y-10890714D01*
X20169643Y-10890714D01*
X20198214Y-10905000D01*
X20212500Y-10933572D01*
X20212500Y-10962143D01*
X20069643Y-10990714D01*
X20326786Y-11076429D02*
X20355357Y-11090714D01*
X20412500Y-11090714D01*
X20441071Y-11076429D01*
X20455357Y-11047857D01*
X20455357Y-11033572D01*
X20441071Y-11005000D01*
X20412500Y-10990714D01*
X20369643Y-10990714D01*
X20341071Y-10976429D01*
X20326786Y-10947857D01*
X20326786Y-10933572D01*
X20341071Y-10905000D01*
X20369643Y-10890714D01*
X20412500Y-10890714D01*
X20441071Y-10905000D01*
X20555357Y-11205000D02*
X20569643Y-11190714D01*
X20598214Y-11147857D01*
X20612500Y-11119286D01*
X20626786Y-11076429D01*
X20641071Y-11005000D01*
X20641071Y-10947857D01*
X20626786Y-10876429D01*
X20612500Y-10833572D01*
X20598214Y-10805000D01*
X20569643Y-10762143D01*
X20555357Y-10747857D01*
X13497500Y-11351000D02*
G75*
G03*
X13497500Y-11351000I-45000J0D01*
G01*
X13841071Y-11186714D02*
X13869643Y-11186714D01*
X13898214Y-11201000D01*
X13912500Y-11215286D01*
X13926786Y-11243857D01*
X13941071Y-11301000D01*
X13941071Y-11372429D01*
X13926786Y-11429571D01*
X13912500Y-11458143D01*
X13898214Y-11472429D01*
X13869643Y-11486714D01*
X13841071Y-11486714D01*
X13812500Y-11472429D01*
X13798214Y-11458143D01*
X13783928Y-11429571D01*
X13769643Y-11372429D01*
X13769643Y-11301000D01*
X13783928Y-11243857D01*
X13798214Y-11215286D01*
X13812500Y-11201000D01*
X13841071Y-11186714D01*
X14069643Y-11458143D02*
X14083928Y-11472429D01*
X14069643Y-11486714D01*
X14055357Y-11472429D01*
X14069643Y-11458143D01*
X14069643Y-11486714D01*
X14226786Y-11486714D02*
X14283928Y-11486714D01*
X14312500Y-11472429D01*
X14326786Y-11458143D01*
X14355357Y-11415286D01*
X14369643Y-11358143D01*
X14369643Y-11243857D01*
X14355357Y-11215286D01*
X14341071Y-11201000D01*
X14312500Y-11186714D01*
X14255357Y-11186714D01*
X14226786Y-11201000D01*
X14212500Y-11215286D01*
X14198214Y-11243857D01*
X14198214Y-11315286D01*
X14212500Y-11343857D01*
X14226786Y-11358143D01*
X14255357Y-11372429D01*
X14312500Y-11372429D01*
X14341071Y-11358143D01*
X14355357Y-11343857D01*
X14369643Y-11315286D01*
X14555357Y-11186714D02*
X14583928Y-11186714D01*
X14612500Y-11201000D01*
X14626786Y-11215286D01*
X14641071Y-11243857D01*
X14655357Y-11301000D01*
X14655357Y-11372429D01*
X14641071Y-11429571D01*
X14626786Y-11458143D01*
X14612500Y-11472429D01*
X14583928Y-11486714D01*
X14555357Y-11486714D01*
X14526786Y-11472429D01*
X14512500Y-11458143D01*
X14498214Y-11429571D01*
X14483928Y-11372429D01*
X14483928Y-11301000D01*
X14498214Y-11243857D01*
X14512500Y-11215286D01*
X14526786Y-11201000D01*
X14555357Y-11186714D01*
X14841071Y-11186714D02*
X14869643Y-11186714D01*
X14898214Y-11201000D01*
X14912500Y-11215286D01*
X14926786Y-11243857D01*
X14941071Y-11301000D01*
X14941071Y-11372429D01*
X14926786Y-11429571D01*
X14912500Y-11458143D01*
X14898214Y-11472429D01*
X14869643Y-11486714D01*
X14841071Y-11486714D01*
X14812500Y-11472429D01*
X14798214Y-11458143D01*
X14783928Y-11429571D01*
X14769643Y-11372429D01*
X14769643Y-11301000D01*
X14783928Y-11243857D01*
X14798214Y-11215286D01*
X14812500Y-11201000D01*
X14841071Y-11186714D01*
X15069643Y-11486714D02*
X15069643Y-11286714D01*
X15069643Y-11315286D02*
X15083928Y-11301000D01*
X15112500Y-11286714D01*
X15155357Y-11286714D01*
X15183928Y-11301000D01*
X15198214Y-11329571D01*
X15198214Y-11486714D01*
X15198214Y-11329571D02*
X15212500Y-11301000D01*
X15241071Y-11286714D01*
X15283928Y-11286714D01*
X15312500Y-11301000D01*
X15326786Y-11329571D01*
X15326786Y-11486714D01*
X15469643Y-11486714D02*
X15469643Y-11286714D01*
X15469643Y-11315286D02*
X15483928Y-11301000D01*
X15512500Y-11286714D01*
X15555357Y-11286714D01*
X15583928Y-11301000D01*
X15598214Y-11329571D01*
X15598214Y-11486714D01*
X15598214Y-11329571D02*
X15612500Y-11301000D01*
X15641071Y-11286714D01*
X15683928Y-11286714D01*
X15712500Y-11301000D01*
X15726786Y-11329571D01*
X15726786Y-11486714D01*
X16312500Y-11172429D02*
X16055357Y-11558143D01*
X16698214Y-11186714D02*
X16726786Y-11186714D01*
X16755357Y-11201000D01*
X16769643Y-11215286D01*
X16783928Y-11243857D01*
X16798214Y-11301000D01*
X16798214Y-11372429D01*
X16783928Y-11429571D01*
X16769643Y-11458143D01*
X16755357Y-11472429D01*
X16726786Y-11486714D01*
X16698214Y-11486714D01*
X16669643Y-11472429D01*
X16655357Y-11458143D01*
X16641071Y-11429571D01*
X16626786Y-11372429D01*
X16626786Y-11301000D01*
X16641071Y-11243857D01*
X16655357Y-11215286D01*
X16669643Y-11201000D01*
X16698214Y-11186714D01*
X16926786Y-11458143D02*
X16941071Y-11472429D01*
X16926786Y-11486714D01*
X16912500Y-11472429D01*
X16926786Y-11458143D01*
X16926786Y-11486714D01*
X17126786Y-11186714D02*
X17155357Y-11186714D01*
X17183928Y-11201000D01*
X17198214Y-11215286D01*
X17212500Y-11243857D01*
X17226786Y-11301000D01*
X17226786Y-11372429D01*
X17212500Y-11429571D01*
X17198214Y-11458143D01*
X17183928Y-11472429D01*
X17155357Y-11486714D01*
X17126786Y-11486714D01*
X17098214Y-11472429D01*
X17083928Y-11458143D01*
X17069643Y-11429571D01*
X17055357Y-11372429D01*
X17055357Y-11301000D01*
X17069643Y-11243857D01*
X17083928Y-11215286D01*
X17098214Y-11201000D01*
X17126786Y-11186714D01*
X17326786Y-11186714D02*
X17512500Y-11186714D01*
X17412500Y-11301000D01*
X17455357Y-11301000D01*
X17483928Y-11315286D01*
X17498214Y-11329571D01*
X17512500Y-11358143D01*
X17512500Y-11429571D01*
X17498214Y-11458143D01*
X17483928Y-11472429D01*
X17455357Y-11486714D01*
X17369643Y-11486714D01*
X17341071Y-11472429D01*
X17326786Y-11458143D01*
X17783928Y-11186714D02*
X17641071Y-11186714D01*
X17626786Y-11329571D01*
X17641071Y-11315286D01*
X17669643Y-11301000D01*
X17741071Y-11301000D01*
X17769643Y-11315286D01*
X17783928Y-11329571D01*
X17798214Y-11358143D01*
X17798214Y-11429571D01*
X17783928Y-11458143D01*
X17769643Y-11472429D01*
X17741071Y-11486714D01*
X17669643Y-11486714D01*
X17641071Y-11472429D01*
X17626786Y-11458143D01*
X18055357Y-11286714D02*
X18055357Y-11486714D01*
X17983928Y-11172429D02*
X17912500Y-11386714D01*
X18098214Y-11386714D01*
X18198214Y-11186714D02*
X18198214Y-11243857D01*
X18312500Y-11186714D02*
X18312500Y-11243857D01*
X18755357Y-11601000D02*
X18741071Y-11586714D01*
X18712500Y-11543857D01*
X18698214Y-11515286D01*
X18683928Y-11472429D01*
X18669643Y-11401000D01*
X18669643Y-11343857D01*
X18683928Y-11272429D01*
X18698214Y-11229571D01*
X18712500Y-11201000D01*
X18741071Y-11158143D01*
X18755357Y-11143857D01*
X18998214Y-11286714D02*
X18998214Y-11486714D01*
X18926786Y-11172429D02*
X18855357Y-11386714D01*
X19041071Y-11386714D01*
X19383928Y-11486714D02*
X19383928Y-11186714D01*
X19512500Y-11486714D02*
X19512500Y-11329571D01*
X19498214Y-11301000D01*
X19469643Y-11286714D01*
X19426786Y-11286714D01*
X19398214Y-11301000D01*
X19383928Y-11315286D01*
X19698214Y-11486714D02*
X19669643Y-11472429D01*
X19655357Y-11458143D01*
X19641071Y-11429571D01*
X19641071Y-11343857D01*
X19655357Y-11315286D01*
X19669643Y-11301000D01*
X19698214Y-11286714D01*
X19741071Y-11286714D01*
X19769643Y-11301000D01*
X19783928Y-11315286D01*
X19798214Y-11343857D01*
X19798214Y-11429571D01*
X19783928Y-11458143D01*
X19769643Y-11472429D01*
X19741071Y-11486714D01*
X19698214Y-11486714D01*
X19969643Y-11486714D02*
X19941071Y-11472429D01*
X19926786Y-11443857D01*
X19926786Y-11186714D01*
X20198214Y-11472429D02*
X20169643Y-11486714D01*
X20112500Y-11486714D01*
X20083928Y-11472429D01*
X20069643Y-11443857D01*
X20069643Y-11329571D01*
X20083928Y-11301000D01*
X20112500Y-11286714D01*
X20169643Y-11286714D01*
X20198214Y-11301000D01*
X20212500Y-11329571D01*
X20212500Y-11358143D01*
X20069643Y-11386714D01*
X20326786Y-11472429D02*
X20355357Y-11486714D01*
X20412500Y-11486714D01*
X20441071Y-11472429D01*
X20455357Y-11443857D01*
X20455357Y-11429571D01*
X20441071Y-11401000D01*
X20412500Y-11386714D01*
X20369643Y-11386714D01*
X20341071Y-11372429D01*
X20326786Y-11343857D01*
X20326786Y-11329571D01*
X20341071Y-11301000D01*
X20369643Y-11286714D01*
X20412500Y-11286714D01*
X20441071Y-11301000D01*
X20555357Y-11601000D02*
X20569643Y-11586714D01*
X20598214Y-11543857D01*
X20612500Y-11515286D01*
X20626786Y-11472429D01*
X20641071Y-11401000D01*
X20641071Y-11343857D01*
X20626786Y-11272429D01*
X20612500Y-11229571D01*
X20598214Y-11201000D01*
X20569643Y-11158143D01*
X20555357Y-11143857D01*
X13447500Y-11697000D02*
X13447500Y-11797000D01*
X13397500Y-11747000D02*
X13497500Y-11747000D01*
X13941071Y-11882714D02*
X13769643Y-11882714D01*
X13855357Y-11882714D02*
X13855357Y-11582714D01*
X13826786Y-11625571D01*
X13798214Y-11654143D01*
X13769643Y-11668429D01*
X14069643Y-11854143D02*
X14083928Y-11868429D01*
X14069643Y-11882714D01*
X14055357Y-11868429D01*
X14069643Y-11854143D01*
X14069643Y-11882714D01*
X14269643Y-11582714D02*
X14298214Y-11582714D01*
X14326786Y-11597000D01*
X14341071Y-11611286D01*
X14355357Y-11639857D01*
X14369643Y-11697000D01*
X14369643Y-11768429D01*
X14355357Y-11825571D01*
X14341071Y-11854143D01*
X14326786Y-11868429D01*
X14298214Y-11882714D01*
X14269643Y-11882714D01*
X14241071Y-11868429D01*
X14226786Y-11854143D01*
X14212500Y-11825571D01*
X14198214Y-11768429D01*
X14198214Y-11697000D01*
X14212500Y-11639857D01*
X14226786Y-11611286D01*
X14241071Y-11597000D01*
X14269643Y-11582714D01*
X14555357Y-11582714D02*
X14583928Y-11582714D01*
X14612500Y-11597000D01*
X14626786Y-11611286D01*
X14641071Y-11639857D01*
X14655357Y-11697000D01*
X14655357Y-11768429D01*
X14641071Y-11825571D01*
X14626786Y-11854143D01*
X14612500Y-11868429D01*
X14583928Y-11882714D01*
X14555357Y-11882714D01*
X14526786Y-11868429D01*
X14512500Y-11854143D01*
X14498214Y-11825571D01*
X14483928Y-11768429D01*
X14483928Y-11697000D01*
X14498214Y-11639857D01*
X14512500Y-11611286D01*
X14526786Y-11597000D01*
X14555357Y-11582714D01*
X14841071Y-11582714D02*
X14869643Y-11582714D01*
X14898214Y-11597000D01*
X14912500Y-11611286D01*
X14926786Y-11639857D01*
X14941071Y-11697000D01*
X14941071Y-11768429D01*
X14926786Y-11825571D01*
X14912500Y-11854143D01*
X14898214Y-11868429D01*
X14869643Y-11882714D01*
X14841071Y-11882714D01*
X14812500Y-11868429D01*
X14798214Y-11854143D01*
X14783928Y-11825571D01*
X14769643Y-11768429D01*
X14769643Y-11697000D01*
X14783928Y-11639857D01*
X14798214Y-11611286D01*
X14812500Y-11597000D01*
X14841071Y-11582714D01*
X15069643Y-11882714D02*
X15069643Y-11682714D01*
X15069643Y-11711286D02*
X15083928Y-11697000D01*
X15112500Y-11682714D01*
X15155357Y-11682714D01*
X15183928Y-11697000D01*
X15198214Y-11725571D01*
X15198214Y-11882714D01*
X15198214Y-11725571D02*
X15212500Y-11697000D01*
X15241071Y-11682714D01*
X15283928Y-11682714D01*
X15312500Y-11697000D01*
X15326786Y-11725571D01*
X15326786Y-11882714D01*
X15469643Y-11882714D02*
X15469643Y-11682714D01*
X15469643Y-11711286D02*
X15483928Y-11697000D01*
X15512500Y-11682714D01*
X15555357Y-11682714D01*
X15583928Y-11697000D01*
X15598214Y-11725571D01*
X15598214Y-11882714D01*
X15598214Y-11725571D02*
X15612500Y-11697000D01*
X15641071Y-11682714D01*
X15683928Y-11682714D01*
X15712500Y-11697000D01*
X15726786Y-11725571D01*
X15726786Y-11882714D01*
X16312500Y-11568429D02*
X16055357Y-11954143D01*
X16698214Y-11582714D02*
X16726786Y-11582714D01*
X16755357Y-11597000D01*
X16769643Y-11611286D01*
X16783928Y-11639857D01*
X16798214Y-11697000D01*
X16798214Y-11768429D01*
X16783928Y-11825571D01*
X16769643Y-11854143D01*
X16755357Y-11868429D01*
X16726786Y-11882714D01*
X16698214Y-11882714D01*
X16669643Y-11868429D01*
X16655357Y-11854143D01*
X16641071Y-11825571D01*
X16626786Y-11768429D01*
X16626786Y-11697000D01*
X16641071Y-11639857D01*
X16655357Y-11611286D01*
X16669643Y-11597000D01*
X16698214Y-11582714D01*
X16926786Y-11854143D02*
X16941071Y-11868429D01*
X16926786Y-11882714D01*
X16912500Y-11868429D01*
X16926786Y-11854143D01*
X16926786Y-11882714D01*
X17126786Y-11582714D02*
X17155357Y-11582714D01*
X17183928Y-11597000D01*
X17198214Y-11611286D01*
X17212500Y-11639857D01*
X17226786Y-11697000D01*
X17226786Y-11768429D01*
X17212500Y-11825571D01*
X17198214Y-11854143D01*
X17183928Y-11868429D01*
X17155357Y-11882714D01*
X17126786Y-11882714D01*
X17098214Y-11868429D01*
X17083928Y-11854143D01*
X17069643Y-11825571D01*
X17055357Y-11768429D01*
X17055357Y-11697000D01*
X17069643Y-11639857D01*
X17083928Y-11611286D01*
X17098214Y-11597000D01*
X17126786Y-11582714D01*
X17326786Y-11582714D02*
X17512500Y-11582714D01*
X17412500Y-11697000D01*
X17455357Y-11697000D01*
X17483928Y-11711286D01*
X17498214Y-11725571D01*
X17512500Y-11754143D01*
X17512500Y-11825571D01*
X17498214Y-11854143D01*
X17483928Y-11868429D01*
X17455357Y-11882714D01*
X17369643Y-11882714D01*
X17341071Y-11868429D01*
X17326786Y-11854143D01*
X17655357Y-11882714D02*
X17712500Y-11882714D01*
X17741071Y-11868429D01*
X17755357Y-11854143D01*
X17783928Y-11811286D01*
X17798214Y-11754143D01*
X17798214Y-11639857D01*
X17783928Y-11611286D01*
X17769643Y-11597000D01*
X17741071Y-11582714D01*
X17683928Y-11582714D01*
X17655357Y-11597000D01*
X17641071Y-11611286D01*
X17626786Y-11639857D01*
X17626786Y-11711286D01*
X17641071Y-11739857D01*
X17655357Y-11754143D01*
X17683928Y-11768429D01*
X17741071Y-11768429D01*
X17769643Y-11754143D01*
X17783928Y-11739857D01*
X17798214Y-11711286D01*
X18055357Y-11682714D02*
X18055357Y-11882714D01*
X17983928Y-11568429D02*
X17912500Y-11782714D01*
X18098214Y-11782714D01*
X18198214Y-11582714D02*
X18198214Y-11639857D01*
X18312500Y-11582714D02*
X18312500Y-11639857D01*
X18755357Y-11997000D02*
X18741071Y-11982714D01*
X18712500Y-11939857D01*
X18698214Y-11911286D01*
X18683928Y-11868429D01*
X18669643Y-11797000D01*
X18669643Y-11739857D01*
X18683928Y-11668429D01*
X18698214Y-11625571D01*
X18712500Y-11597000D01*
X18741071Y-11554143D01*
X18755357Y-11539857D01*
X18841071Y-11582714D02*
X19026786Y-11582714D01*
X18926786Y-11697000D01*
X18969643Y-11697000D01*
X18998214Y-11711286D01*
X19012500Y-11725571D01*
X19026786Y-11754143D01*
X19026786Y-11825571D01*
X19012500Y-11854143D01*
X18998214Y-11868429D01*
X18969643Y-11882714D01*
X18883928Y-11882714D01*
X18855357Y-11868429D01*
X18841071Y-11854143D01*
X19383928Y-11882714D02*
X19383928Y-11582714D01*
X19512500Y-11882714D02*
X19512500Y-11725571D01*
X19498214Y-11697000D01*
X19469643Y-11682714D01*
X19426786Y-11682714D01*
X19398214Y-11697000D01*
X19383928Y-11711286D01*
X19698214Y-11882714D02*
X19669643Y-11868429D01*
X19655357Y-11854143D01*
X19641071Y-11825571D01*
X19641071Y-11739857D01*
X19655357Y-11711286D01*
X19669643Y-11697000D01*
X19698214Y-11682714D01*
X19741071Y-11682714D01*
X19769643Y-11697000D01*
X19783928Y-11711286D01*
X19798214Y-11739857D01*
X19798214Y-11825571D01*
X19783928Y-11854143D01*
X19769643Y-11868429D01*
X19741071Y-11882714D01*
X19698214Y-11882714D01*
X19969643Y-11882714D02*
X19941071Y-11868429D01*
X19926786Y-11839857D01*
X19926786Y-11582714D01*
X20198214Y-11868429D02*
X20169643Y-11882714D01*
X20112500Y-11882714D01*
X20083928Y-11868429D01*
X20069643Y-11839857D01*
X20069643Y-11725571D01*
X20083928Y-11697000D01*
X20112500Y-11682714D01*
X20169643Y-11682714D01*
X20198214Y-11697000D01*
X20212500Y-11725571D01*
X20212500Y-11754143D01*
X20069643Y-11782714D01*
X20326786Y-11868429D02*
X20355357Y-11882714D01*
X20412500Y-11882714D01*
X20441071Y-11868429D01*
X20455357Y-11839857D01*
X20455357Y-11825571D01*
X20441071Y-11797000D01*
X20412500Y-11782714D01*
X20369643Y-11782714D01*
X20341071Y-11768429D01*
X20326786Y-11739857D01*
X20326786Y-11725571D01*
X20341071Y-11697000D01*
X20369643Y-11682714D01*
X20412500Y-11682714D01*
X20441071Y-11697000D01*
X20555357Y-11997000D02*
X20569643Y-11982714D01*
X20598214Y-11939857D01*
X20612500Y-11911286D01*
X20626786Y-11868429D01*
X20641071Y-11797000D01*
X20641071Y-11739857D01*
X20626786Y-11668429D01*
X20612500Y-11625571D01*
X20598214Y-11597000D01*
X20569643Y-11554143D01*
X20555357Y-11539857D01*
M02*
