%TF.GenerationSoftware,KiCad,Pcbnew,(5.1.10)-1*%
%TF.CreationDate,2021-05-24T22:05:53+05:30*%
%TF.ProjectId,DAY3_PCB,44415933-5f50-4434-922e-6b696361645f,rev?*%
%TF.SameCoordinates,Original*%
%TF.FileFunction,Legend,Top*%
%TF.FilePolarity,Positive*%
%FSLAX46Y46*%
G04 Gerber Fmt 4.6, Leading zero omitted, Abs format (unit mm)*
G04 Created by KiCad (PCBNEW (5.1.10)-1) date 2021-05-24 22:05:53*
%MOMM*%
%LPD*%
G01*
G04 APERTURE LIST*
%ADD10C,0.120000*%
%ADD11C,0.150000*%
G04 APERTURE END LIST*
D10*
%TO.C,D1*%
X172145000Y-92250000D02*
G75*
G03*
X172145000Y-92250000I-2500000J0D01*
G01*
X167085000Y-90705000D02*
X167085000Y-93795000D01*
X172635000Y-92250462D02*
G75*
G03*
X167085000Y-90705170I-2990000J462D01*
G01*
X172635000Y-92249538D02*
G75*
G02*
X167085000Y-93794830I-2990000J-462D01*
G01*
%TO.C,D2*%
X172070000Y-83850000D02*
G75*
G03*
X172070000Y-83850000I-2500000J0D01*
G01*
X167010000Y-82305000D02*
X167010000Y-85395000D01*
X172560000Y-83850462D02*
G75*
G03*
X167010000Y-82305170I-2990000J462D01*
G01*
X172560000Y-83849538D02*
G75*
G02*
X167010000Y-85394830I-2990000J-462D01*
G01*
%TO.C,D3*%
X162247500Y-81415000D02*
X158187500Y-81415000D01*
X162247500Y-83685000D02*
X162247500Y-81415000D01*
X158187500Y-83685000D02*
X162247500Y-83685000D01*
%TO.C,J1*%
X139120001Y-84645001D02*
X140450001Y-84645001D01*
X139120001Y-85975001D02*
X139120001Y-84645001D01*
X139120001Y-87245001D02*
X141780001Y-87245001D01*
X141780001Y-87245001D02*
X141780001Y-92385001D01*
X139120001Y-87245001D02*
X139120001Y-92385001D01*
X139120001Y-92385001D02*
X141780001Y-92385001D01*
%TO.C,R1*%
X160927064Y-93190000D02*
X159472936Y-93190000D01*
X160927064Y-95010000D02*
X159472936Y-95010000D01*
%TO.C,R2*%
X160927064Y-90985000D02*
X159472936Y-90985000D01*
X160927064Y-89165000D02*
X159472936Y-89165000D01*
%TO.C,R3*%
X160727064Y-85365000D02*
X159272936Y-85365000D01*
X160727064Y-87185000D02*
X159272936Y-87185000D01*
%TO.C,RV1*%
X152495000Y-83556000D02*
X152495000Y-86610000D01*
X145905000Y-83556000D02*
X145905000Y-86610000D01*
X150035000Y-86610000D02*
X152495000Y-86610000D01*
X145905000Y-86610000D02*
X148365000Y-86610000D01*
X147495000Y-82050000D02*
X150905000Y-82050000D01*
%TO.C,U1*%
X148475000Y-95525000D02*
X151925000Y-95525000D01*
X148475000Y-95525000D02*
X146525000Y-95525000D01*
X148475000Y-90405000D02*
X150425000Y-90405000D01*
X148475000Y-90405000D02*
X146525000Y-90405000D01*
%TO.C,D1*%
D11*
X166711904Y-96602380D02*
X166711904Y-95602380D01*
X166950000Y-95602380D01*
X167092857Y-95650000D01*
X167188095Y-95745238D01*
X167235714Y-95840476D01*
X167283333Y-96030952D01*
X167283333Y-96173809D01*
X167235714Y-96364285D01*
X167188095Y-96459523D01*
X167092857Y-96554761D01*
X166950000Y-96602380D01*
X166711904Y-96602380D01*
X168235714Y-96602380D02*
X167664285Y-96602380D01*
X167950000Y-96602380D02*
X167950000Y-95602380D01*
X167854761Y-95745238D01*
X167759523Y-95840476D01*
X167664285Y-95888095D01*
%TO.C,D2*%
X168836904Y-80127380D02*
X168836904Y-79127380D01*
X169075000Y-79127380D01*
X169217857Y-79175000D01*
X169313095Y-79270238D01*
X169360714Y-79365476D01*
X169408333Y-79555952D01*
X169408333Y-79698809D01*
X169360714Y-79889285D01*
X169313095Y-79984523D01*
X169217857Y-80079761D01*
X169075000Y-80127380D01*
X168836904Y-80127380D01*
X169789285Y-79222619D02*
X169836904Y-79175000D01*
X169932142Y-79127380D01*
X170170238Y-79127380D01*
X170265476Y-79175000D01*
X170313095Y-79222619D01*
X170360714Y-79317857D01*
X170360714Y-79413095D01*
X170313095Y-79555952D01*
X169741666Y-80127380D01*
X170360714Y-80127380D01*
%TO.C,D3*%
X163136904Y-82927380D02*
X163136904Y-81927380D01*
X163375000Y-81927380D01*
X163517857Y-81975000D01*
X163613095Y-82070238D01*
X163660714Y-82165476D01*
X163708333Y-82355952D01*
X163708333Y-82498809D01*
X163660714Y-82689285D01*
X163613095Y-82784523D01*
X163517857Y-82879761D01*
X163375000Y-82927380D01*
X163136904Y-82927380D01*
X164041666Y-81927380D02*
X164660714Y-81927380D01*
X164327380Y-82308333D01*
X164470238Y-82308333D01*
X164565476Y-82355952D01*
X164613095Y-82403571D01*
X164660714Y-82498809D01*
X164660714Y-82736904D01*
X164613095Y-82832142D01*
X164565476Y-82879761D01*
X164470238Y-82927380D01*
X164184523Y-82927380D01*
X164089285Y-82879761D01*
X164041666Y-82832142D01*
%TO.C,J1*%
X140116667Y-83097381D02*
X140116667Y-83811667D01*
X140069048Y-83954524D01*
X139973810Y-84049762D01*
X139830953Y-84097381D01*
X139735715Y-84097381D01*
X141116667Y-84097381D02*
X140545239Y-84097381D01*
X140830953Y-84097381D02*
X140830953Y-83097381D01*
X140735715Y-83240239D01*
X140640477Y-83335477D01*
X140545239Y-83383096D01*
%TO.C,R1*%
X163808333Y-94652380D02*
X163475000Y-94176190D01*
X163236904Y-94652380D02*
X163236904Y-93652380D01*
X163617857Y-93652380D01*
X163713095Y-93700000D01*
X163760714Y-93747619D01*
X163808333Y-93842857D01*
X163808333Y-93985714D01*
X163760714Y-94080952D01*
X163713095Y-94128571D01*
X163617857Y-94176190D01*
X163236904Y-94176190D01*
X164760714Y-94652380D02*
X164189285Y-94652380D01*
X164475000Y-94652380D02*
X164475000Y-93652380D01*
X164379761Y-93795238D01*
X164284523Y-93890476D01*
X164189285Y-93938095D01*
%TO.C,R2*%
X163758333Y-90652380D02*
X163425000Y-90176190D01*
X163186904Y-90652380D02*
X163186904Y-89652380D01*
X163567857Y-89652380D01*
X163663095Y-89700000D01*
X163710714Y-89747619D01*
X163758333Y-89842857D01*
X163758333Y-89985714D01*
X163710714Y-90080952D01*
X163663095Y-90128571D01*
X163567857Y-90176190D01*
X163186904Y-90176190D01*
X164139285Y-89747619D02*
X164186904Y-89700000D01*
X164282142Y-89652380D01*
X164520238Y-89652380D01*
X164615476Y-89700000D01*
X164663095Y-89747619D01*
X164710714Y-89842857D01*
X164710714Y-89938095D01*
X164663095Y-90080952D01*
X164091666Y-90652380D01*
X164710714Y-90652380D01*
%TO.C,R3*%
X163708333Y-86777380D02*
X163375000Y-86301190D01*
X163136904Y-86777380D02*
X163136904Y-85777380D01*
X163517857Y-85777380D01*
X163613095Y-85825000D01*
X163660714Y-85872619D01*
X163708333Y-85967857D01*
X163708333Y-86110714D01*
X163660714Y-86205952D01*
X163613095Y-86253571D01*
X163517857Y-86301190D01*
X163136904Y-86301190D01*
X164041666Y-85777380D02*
X164660714Y-85777380D01*
X164327380Y-86158333D01*
X164470238Y-86158333D01*
X164565476Y-86205952D01*
X164613095Y-86253571D01*
X164660714Y-86348809D01*
X164660714Y-86586904D01*
X164613095Y-86682142D01*
X164565476Y-86729761D01*
X164470238Y-86777380D01*
X164184523Y-86777380D01*
X164089285Y-86729761D01*
X164041666Y-86682142D01*
%TO.C,RV1*%
X145127380Y-80595238D02*
X144651190Y-80928571D01*
X145127380Y-81166666D02*
X144127380Y-81166666D01*
X144127380Y-80785714D01*
X144175000Y-80690476D01*
X144222619Y-80642857D01*
X144317857Y-80595238D01*
X144460714Y-80595238D01*
X144555952Y-80642857D01*
X144603571Y-80690476D01*
X144651190Y-80785714D01*
X144651190Y-81166666D01*
X144127380Y-80309523D02*
X145127380Y-79976190D01*
X144127380Y-79642857D01*
X145127380Y-78785714D02*
X145127380Y-79357142D01*
X145127380Y-79071428D02*
X144127380Y-79071428D01*
X144270238Y-79166666D01*
X144365476Y-79261904D01*
X144413095Y-79357142D01*
%TO.C,U1*%
X143277380Y-93776904D02*
X144086904Y-93776904D01*
X144182142Y-93729285D01*
X144229761Y-93681666D01*
X144277380Y-93586428D01*
X144277380Y-93395952D01*
X144229761Y-93300714D01*
X144182142Y-93253095D01*
X144086904Y-93205476D01*
X143277380Y-93205476D01*
X144277380Y-92205476D02*
X144277380Y-92776904D01*
X144277380Y-92491190D02*
X143277380Y-92491190D01*
X143420238Y-92586428D01*
X143515476Y-92681666D01*
X143563095Y-92776904D01*
%TD*%
M02*
