%FSLAX45Y45*%
G04 Gerber Fmt 4.5, Leading zero omitted, Abs format (unit mm)*
G04 Created by KiCad (PCBNEW (5.1.10)-1) date 2021-05-24 22:05:39*
%MOMM*%
%LPD*%
G01*
G04 APERTURE LIST*
%TA.AperFunction,Profile*%
%ADD10C,0.050000*%
%TD*%
%ADD11C,0.200000*%
%ADD12C,0.300000*%
G04 APERTURE END LIST*
D10*
X13500000Y-9985000D02*
X13500000Y-7662500D01*
X17382500Y-9992500D02*
X13500000Y-9985000D01*
X17382500Y-7662500D02*
X17382500Y-9992500D01*
X13500000Y-7662500D02*
X17382500Y-7662500D01*
D11*
D12*
X13783928Y-10460714D02*
X13783928Y-10160714D01*
X13855357Y-10160714D01*
X13898214Y-10175000D01*
X13926786Y-10203572D01*
X13941071Y-10232143D01*
X13955357Y-10289286D01*
X13955357Y-10332143D01*
X13941071Y-10389286D01*
X13926786Y-10417857D01*
X13898214Y-10446429D01*
X13855357Y-10460714D01*
X13783928Y-10460714D01*
X14083928Y-10460714D02*
X14083928Y-10260714D01*
X14083928Y-10317857D02*
X14098214Y-10289286D01*
X14112500Y-10275000D01*
X14141071Y-10260714D01*
X14169643Y-10260714D01*
X14269643Y-10460714D02*
X14269643Y-10260714D01*
X14269643Y-10160714D02*
X14255357Y-10175000D01*
X14269643Y-10189286D01*
X14283928Y-10175000D01*
X14269643Y-10160714D01*
X14269643Y-10189286D01*
X14455357Y-10460714D02*
X14426786Y-10446429D01*
X14412500Y-10417857D01*
X14412500Y-10160714D01*
X14612500Y-10460714D02*
X14583928Y-10446429D01*
X14569643Y-10417857D01*
X14569643Y-10160714D01*
X14955357Y-10460714D02*
X14955357Y-10160714D01*
X15055357Y-10375000D01*
X15155357Y-10160714D01*
X15155357Y-10460714D01*
X15426786Y-10460714D02*
X15426786Y-10303572D01*
X15412500Y-10275000D01*
X15383928Y-10260714D01*
X15326786Y-10260714D01*
X15298214Y-10275000D01*
X15426786Y-10446429D02*
X15398214Y-10460714D01*
X15326786Y-10460714D01*
X15298214Y-10446429D01*
X15283928Y-10417857D01*
X15283928Y-10389286D01*
X15298214Y-10360714D01*
X15326786Y-10346429D01*
X15398214Y-10346429D01*
X15426786Y-10332143D01*
X15569643Y-10260714D02*
X15569643Y-10560714D01*
X15569643Y-10275000D02*
X15598214Y-10260714D01*
X15655357Y-10260714D01*
X15683928Y-10275000D01*
X15698214Y-10289286D01*
X15712500Y-10317857D01*
X15712500Y-10403572D01*
X15698214Y-10432143D01*
X15683928Y-10446429D01*
X15655357Y-10460714D01*
X15598214Y-10460714D01*
X15569643Y-10446429D01*
X15841071Y-10432143D02*
X15855357Y-10446429D01*
X15841071Y-10460714D01*
X15826786Y-10446429D01*
X15841071Y-10432143D01*
X15841071Y-10460714D01*
X15841071Y-10275000D02*
X15855357Y-10289286D01*
X15841071Y-10303572D01*
X15826786Y-10289286D01*
X15841071Y-10275000D01*
X15841071Y-10303572D01*
M02*
